<svg width="1080" height="1080" viewBox="0 0 1080 1080" fill="none" xmlns="http://www.w3.org/2000/svg">
<rect width="1080" height="1080" rx="540" fill="#0A0A0A"/>
<path d="M824.776 504.224C824.776 511.16 828.005 514.628 834.462 514.628H857.065V566.292H834.462C828.005 566.292 824.776 569.76 824.776 576.696V685.405C824.776 696.168 821.307 704.898 814.371 711.596C807.674 718.532 798.944 722 788.181 722H740.822V678.947H769.883C776.341 678.947 779.57 675.359 779.57 668.184V571.673C779.57 563.541 782.081 556.844 787.104 551.582C792.366 546.32 799.183 543.689 807.554 543.689H809.707V537.231H807.554C799.183 537.231 792.366 534.6 787.104 529.338C782.081 524.076 779.57 517.379 779.57 509.247V412.736C779.57 405.561 776.341 401.973 769.883 401.973H740.822V358.92H788.181C798.944 358.92 807.674 362.388 814.371 369.325C821.307 376.022 824.776 384.752 824.776 395.515V504.224Z" fill="white"/>
<path d="M707.347 636.97C707.347 641.754 706.39 646.299 704.477 650.604C702.802 654.67 700.411 658.258 697.301 661.367C694.192 664.237 690.484 666.509 686.179 668.184C682.113 670.097 677.808 671.054 673.263 671.054C668.48 671.054 664.055 670.097 659.989 668.184C655.923 666.509 652.335 664.237 649.225 661.367C646.116 658.258 643.605 654.67 641.691 650.604C640.017 646.299 639.18 641.754 639.18 636.97C639.18 632.187 640.017 627.762 641.691 623.696C643.605 619.39 646.116 615.803 649.225 612.932C652.335 609.823 655.923 607.431 659.989 605.757C664.055 603.844 668.48 602.887 673.263 602.887C677.808 602.887 682.113 603.844 686.179 605.757C690.484 607.431 694.192 609.823 697.301 612.932C700.411 615.803 702.802 619.39 704.477 623.696C706.39 627.762 707.347 632.187 707.347 636.97Z" fill="white"/>
<path d="M573.773 636.97C573.773 641.754 572.817 646.299 570.903 650.604C569.229 654.67 566.837 658.258 563.728 661.367C560.618 664.237 556.911 666.509 552.606 668.184C548.54 670.097 544.234 671.054 539.69 671.054C534.906 671.054 530.481 670.097 526.415 668.184C522.349 666.509 518.761 664.237 515.652 661.367C512.543 658.258 510.031 654.67 508.118 650.604C506.443 646.299 505.606 641.754 505.606 636.97C505.606 632.187 506.443 627.762 508.118 623.696C510.031 619.39 512.543 615.803 515.652 612.932C518.761 609.823 522.349 607.431 526.415 605.757C530.481 603.844 534.906 602.887 539.69 602.887C544.234 602.887 548.54 603.844 552.606 605.757C556.911 607.431 560.618 609.823 563.728 612.932C566.837 615.803 569.229 619.39 570.903 623.696C572.817 627.762 573.773 632.187 573.773 636.97Z" fill="white"/>
<path d="M440.2 636.97C440.2 641.754 439.243 646.299 437.33 650.604C435.656 654.67 433.264 658.258 430.154 661.367C427.045 664.237 423.338 666.509 419.032 668.184C414.966 670.097 410.661 671.054 406.116 671.054C401.333 671.054 396.908 670.097 392.842 668.184C388.776 666.509 385.188 664.237 382.079 661.367C378.969 658.258 376.458 654.67 374.544 650.604C372.87 646.299 372.033 641.754 372.033 636.97C372.033 632.187 372.87 627.762 374.544 623.696C376.458 619.39 378.969 615.803 382.079 612.932C385.188 609.823 388.776 607.431 392.842 605.757C396.908 603.844 401.333 602.887 406.116 602.887C410.661 602.887 414.966 603.844 419.032 605.757C423.338 607.431 427.045 609.823 430.154 612.932C433.264 615.803 435.656 619.39 437.33 623.696C439.243 627.762 440.2 632.187 440.2 636.97Z" fill="white"/>
<path d="M254.604 395.515C254.604 384.752 257.953 376.022 264.65 369.325C271.586 362.388 280.436 358.92 291.199 358.92H338.557V401.973H309.497C303.039 401.973 299.81 405.561 299.81 412.736V509.247C299.81 517.379 297.179 524.076 291.917 529.338C286.894 534.6 280.197 537.231 271.825 537.231H269.673V543.689H271.825C280.197 543.689 286.894 546.32 291.917 551.582C297.179 556.844 299.81 563.541 299.81 571.673V668.184C299.81 675.359 303.039 678.947 309.497 678.947H338.557V722H291.199C280.436 722 271.586 718.532 264.65 711.596C257.953 704.898 254.604 696.168 254.604 685.405V576.696C254.604 569.76 251.375 566.292 244.917 566.292H222.314V514.628H244.917C251.375 514.628 254.604 511.16 254.604 504.224V395.515Z" fill="white"/>
</svg>
